<mxfile host="app.diagrams.net" modified="2024-06-23T10:51:05.292Z" agent="Mozilla/5.0 (Windows NT 10.0; Win64; x64) AppleWebKit/537.36 (KHTML, like Gecko) Chrome/126.0.0.0 Safari/537.36" etag="1FYaquQNRZWTYRhKtO2E" version="24.4.13" type="device">
  <diagram name="Page-1" id="msP-WdFPqLLN9_wjGTvJ">
    <mxGraphModel dx="1674" dy="746" grid="1" gridSize="10" guides="1" tooltips="1" connect="1" arrows="1" fold="1" page="1" pageScale="1" pageWidth="850" pageHeight="1100" math="0" shadow="0">
      <root>
        <mxCell id="0" />
        <mxCell id="1" parent="0" />
        <mxCell id="q4GBBEGz8iMoMLM3bmfH-2" style="edgeStyle=orthogonalEdgeStyle;rounded=0;orthogonalLoop=1;jettySize=auto;html=1;" edge="1" parent="1" source="q4GBBEGz8iMoMLM3bmfH-1" target="q4GBBEGz8iMoMLM3bmfH-3">
          <mxGeometry relative="1" as="geometry">
            <mxPoint x="450" y="215" as="targetPoint" />
          </mxGeometry>
        </mxCell>
        <mxCell id="q4GBBEGz8iMoMLM3bmfH-5" style="edgeStyle=orthogonalEdgeStyle;rounded=0;orthogonalLoop=1;jettySize=auto;html=1;exitX=0.5;exitY=0;exitDx=0;exitDy=0;" edge="1" parent="1" source="q4GBBEGz8iMoMLM3bmfH-1">
          <mxGeometry relative="1" as="geometry">
            <mxPoint x="330" y="100" as="targetPoint" />
          </mxGeometry>
        </mxCell>
        <mxCell id="q4GBBEGz8iMoMLM3bmfH-1" value="-Create gui&amp;nbsp; for annotation&lt;div&gt;-Training one object&lt;/div&gt;&lt;div&gt;-Applying model to one object&lt;/div&gt;&lt;div&gt;-Applying model to 2 objects.&lt;/div&gt;&lt;div&gt;-Combine data with picture&lt;br&gt;&lt;div&gt;&lt;br&gt;&lt;/div&gt;&lt;/div&gt;" style="whiteSpace=wrap;html=1;aspect=fixed;" vertex="1" parent="1">
          <mxGeometry x="270" y="130" width="150" height="150" as="geometry" />
        </mxCell>
        <mxCell id="q4GBBEGz8iMoMLM3bmfH-3" value="Left to&amp;nbsp; finish&lt;div&gt;to model more than a mice&lt;/div&gt;&lt;div&gt;For the moment only&amp;nbsp;&lt;/div&gt;&lt;div&gt;works pose detection&lt;/div&gt;" style="whiteSpace=wrap;html=1;aspect=fixed;" vertex="1" parent="1">
          <mxGeometry x="450" y="175" width="145" height="145" as="geometry" />
        </mxCell>
        <mxCell id="q4GBBEGz8iMoMLM3bmfH-6" value="each button activate&lt;div&gt;bash file&lt;/div&gt;" style="shape=parallelogram;perimeter=parallelogramPerimeter;whiteSpace=wrap;html=1;fixedSize=1;" vertex="1" parent="1">
          <mxGeometry x="280" y="40" width="190" height="60" as="geometry" />
        </mxCell>
      </root>
    </mxGraphModel>
  </diagram>
</mxfile>
